<?xml version="1.0" standalone="no"?>
<!DOCTYPE svg PUBLIC "-//W3C//DTD SVG 20010904//EN"
 "http://www.w3.org/TR/2001/REC-SVG-20010904/DTD/svg10.dtd">
<svg version="1.0" xmlns="http://www.w3.org/2000/svg"
 width="387.000000pt" height="387.000000pt" viewBox="0 0 387.000000 387.000000"
 preserveAspectRatio="xMidYMid meet">
<metadata>
Created by potrace 1.14, written by Peter Selinger 2001-2017
</metadata>
<g transform="translate(0.000000,387.000000) scale(0.100000,-0.100000)"
fill="#000000" stroke="none">
<path d="M54 3639 c-11 -6 -28 -23 -37 -39 -16 -26 -17 -154 -17 -1664 0
-1154 3 -1642 11 -1659 6 -13 23 -31 39 -40 26 -16 170 -17 1884 -17 1312 0
1862 3 1879 11 13 6 31 23 40 39 16 26 17 156 17 1664 0 1154 -3 1642 -11
1659 -6 13 -23 31 -39 40 -26 16 -170 17 -1887 16 -1228 0 -1865 -4 -1879 -10z
m2002 -461 c52 -35 52 -35 517 -597 269 -326 307 -376 307 -406 0 -24 -7 -39
-26 -54 -27 -21 -31 -21 -914 -21 -883 0 -887 0 -914 21 -19 15 -26 30 -26 54
0 30 44 87 361 472 199 241 380 458 403 482 55 58 106 81 182 81 53 0 69 -5
110 -32z m-652 -1339 l26 -20 0 -310 0 -309 120 0 120 0 0 303 c1 317 1 321
47 345 32 18 51 15 78 -13 l25 -24 0 -306 0 -305 120 0 120 0 0 305 0 306 25
24 c27 28 42 30 78 14 44 -20 47 -43 47 -354 l0 -295 120 0 120 0 0 309 0 310
26 20 c15 12 34 21 44 21 10 0 29 -9 44 -21 l26 -20 0 -310 0 -309 75 0 c67 0
79 -3 100 -25 32 -31 32 -69 0 -100 l-24 -25 -801 0 -801 0 -24 25 c-32 31
-32 69 0 100 21 22 33 25 100 25 l75 0 0 309 0 310 26 20 c15 12 34 21 44 21
10 0 29 -9 44 -21z m1455 -1053 c14 -13 21 -31 21 -57 0 -74 62 -69 -942 -69
-885 0 -898 0 -918 20 -38 38 -22 104 30 123 8 3 414 5 901 4 857 -2 888 -3
908 -21z"/>
<path d="M1913 3060 c-24 -10 -51 -40 -422 -490 l-260 -315 354 -3 c195 -1
514 -1 709 0 l355 3 -310 375 c-171 206 -322 387 -337 401 -32 32 -59 41 -89
29z m80 -438 c10 -9 17 -29 17 -53 0 -44 -27 -69 -74 -69 -42 0 -66 26 -66 70
0 69 69 99 123 52z"/>
</g>
</svg>
